<svg width="25" height="24" viewBox="0 0 25 24" fill="none" xmlns="http://www.w3.org/2000/svg">
<path d="M17.4999 9.17C17.3126 8.98375 17.0591 8.87921 16.7949 8.87921C16.5308 8.87921 16.2773 8.98375 16.0899 9.17L12.4999 12.71L8.95995 9.17C8.77259 8.98375 8.51913 8.87921 8.25495 8.87921C7.99076 8.87921 7.73731 8.98375 7.54995 9.17C7.45622 9.26297 7.38183 9.37357 7.33106 9.49543C7.28029 9.61729 7.25415 9.74799 7.25415 9.88C7.25415 10.012 7.28029 10.1427 7.33106 10.2646C7.38183 10.3864 7.45622 10.497 7.54995 10.59L11.7899 14.83C11.8829 14.9237 11.9935 14.9981 12.1154 15.0489C12.2372 15.0997 12.3679 15.1258 12.4999 15.1258C12.632 15.1258 12.7627 15.0997 12.8845 15.0489C13.0064 14.9981 13.117 14.9237 13.2099 14.83L17.4999 10.59C17.5937 10.497 17.6681 10.3864 17.7188 10.2646C17.7696 10.1427 17.7957 10.012 17.7957 9.88C17.7957 9.74799 17.7696 9.61729 17.7188 9.49543C17.6681 9.37357 17.5937 9.26297 17.4999 9.17Z" fill="white"/>
</svg>
